<?xml version="1.0" encoding="utf-8"?>
<!-- Generator: Adobe Illustrator 17.0.0, SVG Export Plug-In . SVG Version: 6.00 Build 0)  -->
<!DOCTYPE svg PUBLIC "-//W3C//DTD SVG 1.1//EN" "http://www.w3.org/Graphics/SVG/1.1/DTD/svg11.dtd">
<svg version="1.1" id="Layer_1" xmlns="http://www.w3.org/2000/svg" xmlns:xlink="http://www.w3.org/1999/xlink" x="0px" y="0px"
	 width="42.178px" height="42.118px" viewBox="0 0 42.178 42.118" enable-background="new 0 0 42.178 42.118" xml:space="preserve">
<path fill="#FFFFFF" d="M42.182,21.059c0,11.641-9.419,21.059-21.059,21.059c-11.641,0-21.119-9.418-21.119-21.059
	C0.004,9.419,9.483,0,21.123,0S42.182,9.419,42.182,21.059z M30.062,15.659c0.9-0.54,1.5-1.38,1.92-2.34
	c-0.84,0.42-1.8,0.84-2.819,1.02c-0.721-0.84-1.801-1.38-3.061-1.38c-2.34,0-4.26,1.92-4.26,4.32c0,0.3,0.06,0.66,0.12,0.96
	c-3.601-0.18-6.66-1.86-8.819-4.5c-0.359,0.66-0.54,1.38-0.54,2.16c0,1.5,0.659,2.82,1.859,3.54c-0.72,0-1.38-0.18-1.92-0.48
	c0,0.06,0,0.06,0,0.06c0,2.04,1.439,3.78,3.359,4.2c-0.3,0.06-0.659,0.119-1.141,0.119c-0.239,0-0.479-0.06-0.72-0.119
	c0.479,1.68,2.04,2.939,3.96,3c-1.439,1.14-3.3,1.8-5.279,1.8c-0.421,0-0.721,0-1.021,0c1.859,1.2,4.14,1.92,6.54,1.92
	c7.858,0,12.118-6.479,12.118-12.179c0-0.18,0-0.42,0-0.54c0.841-0.6,1.62-1.44,2.16-2.22
	C31.742,15.299,30.963,15.539,30.062,15.659z"/>
</svg>
