<?xml version="1.0" encoding="utf-8"?>
<!-- Generator: Adobe Illustrator 17.0.0, SVG Export Plug-In . SVG Version: 6.00 Build 0)  -->
<!DOCTYPE svg PUBLIC "-//W3C//DTD SVG 1.1//EN" "http://www.w3.org/Graphics/SVG/1.1/DTD/svg11.dtd">
<svg version="1.1" id="Layer_1" xmlns="http://www.w3.org/2000/svg" xmlns:xlink="http://www.w3.org/1999/xlink" x="0px" y="0px"
	 width="42.178px" height="42.178px" viewBox="0 0 42.178 42.178" enable-background="new 0 0 42.178 42.178" xml:space="preserve">
<path fill="#FFFFFF" d="M42.178,21.059c0,11.64-9.42,21.119-21.059,21.119C9.479,42.178,0,32.698,0,21.059
	C0,9.539,9.359,0.119,20.879,0h0.42C32.878,0.119,42.178,9.539,42.178,21.059z M9.3,28.438h6.6c0.779,0,1.439-0.059,2.101-0.18
	c0.6-0.18,1.2-0.42,1.62-0.779c0.42-0.301,0.778-0.66,1.079-1.141c0.421-0.721,0.659-1.5,0.659-2.34s-0.238-1.562-0.6-2.16
	s-0.96-1.021-1.68-1.32c0.479-0.237,0.84-0.479,1.08-0.84c0.479-0.539,0.72-1.26,0.72-2.16c0-0.84-0.24-1.619-0.66-2.219
	c-0.78-1.021-2.04-1.562-3.84-1.562H9.3V28.438z M15.779,19.498H12.66v-3.24h2.76c0.72,0,1.26,0.121,1.74,0.24
	c0.54,0.239,0.778,0.66,0.778,1.381c0,0.6-0.18,1.02-0.6,1.26S16.438,19.498,15.779,19.498z M17.279,25.617
	c-0.359,0.182-0.841,0.239-1.5,0.239H12.66v-3.897h3.18c0.6,0,1.14,0.059,1.439,0.24c0.659,0.299,0.96,0.84,0.96,1.559
	C18.239,24.658,17.938,25.318,17.279,25.617z M22.499,22.799c0,1.979,0.479,3.359,1.56,4.26c1.08,0.84,2.34,1.26,3.72,1.26
	c1.681,0,3.061-0.479,3.96-1.5c0.601-0.659,0.961-1.319,1.021-1.92h-2.82c-0.12,0.3-0.3,0.539-0.54,0.72
	c-0.42,0.301-0.899,0.479-1.56,0.479c-0.54,0-1.08-0.119-1.5-0.42c-0.66-0.42-1.08-1.139-1.08-2.219h7.68
	c0-0.9-0.061-1.562-0.12-2.041c-0.119-0.84-0.42-1.562-0.84-2.219c-0.479-0.722-1.08-1.201-1.8-1.562
	c-0.721-0.301-1.561-0.479-2.46-0.479c-1.561,0-2.82,0.479-3.78,1.438C22.979,19.619,22.499,20.998,22.499,22.799z M24.719,15.838
	h5.88v-1.5h-5.88C24.719,14.338,24.719,15.838,24.719,15.838z M30.059,21.658h-4.74c0.12-0.66,0.36-1.199,0.721-1.619
	c0.42-0.42,0.96-0.603,1.681-0.603c0.6,0,1.14,0.183,1.62,0.541C29.759,20.398,29.998,20.938,30.059,21.658z"/>
</svg>
