<?xml version="1.0" encoding="utf-8"?>
<!-- Generator: Adobe Illustrator 17.0.0, SVG Export Plug-In . SVG Version: 6.00 Build 0)  -->
<!DOCTYPE svg PUBLIC "-//W3C//DTD SVG 1.1//EN" "http://www.w3.org/Graphics/SVG/1.1/DTD/svg11.dtd">
<svg version="1.1" id="Layer_1" xmlns="http://www.w3.org/2000/svg" xmlns:xlink="http://www.w3.org/1999/xlink" x="0px" y="0px"
	 width="42.176px" height="42.18px" viewBox="0 0 42.176 42.18" enable-background="new 0 0 42.176 42.18" xml:space="preserve">
<path fill="#FFFFFF" d="M0,21.06C0,9.42,9.419,0,21.058,0c11.64,0,21.118,9.42,21.118,21.061c0,11.64-9.479,21.119-21.118,21.119
	C9.419,42.179,0,32.699,0,21.06z M12.839,11.46c0,1.26,1.021,2.28,2.28,2.28c1.26,0,2.279-1.021,2.279-2.28s-1.02-2.34-2.279-2.34
	C13.859,9.12,12.839,10.2,12.839,11.46z M16.978,15.119h-3.719v12.9h3.719V15.119z M18.779,28.02h3.72v-8.28
	c0,0,1.56-1.5,2.998-0.66c0.301,0.119,0.66,0.72,0.66,1.08v7.859h3.66V20.16c0-1.681-1.02-3.479-2.52-4.32
	c-1.379-0.721-3.359-0.84-4.799-0.12v-0.601h-3.721L18.779,28.02L18.779,28.02z"/>
</svg>
